<?xml version="1.0" encoding="UTF-8"?>
<!DOCTYPE svg PUBLIC "-//W3C//DTD SVG 1.1//EN" "http://www.w3.org/Graphics/SVG/1.1/DTD/svg11.dtd">
<!-- Creator: CorelDRAW X8 -->
<svg xmlns="http://www.w3.org/2000/svg" xml:space="preserve" width="250mm" height="250mm" version="1.1" style="shape-rendering:geometricPrecision; text-rendering:geometricPrecision; image-rendering:optimizeQuality; fill-rule:evenodd; clip-rule:evenodd"
viewBox="0 0 25000 25000"
 xmlns:xlink="http://www.w3.org/1999/xlink">
 <defs>
  <style type="text/css">
   <![CDATA[
    .fil1 {fill:#FEFEFE}
    .fil0 {fill:#FEFEFE;fill-rule:nonzero}
   ]]>
  </style>
 </defs>
 <g id="Слой_x0020_1">
  <metadata id="CorelCorpID_0Corel-Layer"/>
  <g id="_2661241972704">
   <path class="fil0" d="M16500 17902c739,-1199 1452,-2381 2136,-3609l985 1 4 4514 -690 -246 19 -3512 -1765 3029 -689 -177z"/>
   <path class="fil0" d="M15422 17707c0,-899 0,-1798 0,-2697l-1035 -7 0 -710 2816 1 0 717 -1034 -2c0,939 0,1879 0,2819l-747 -121z"/>
   <path class="fil0" d="M8534 14292l0 1075c0,345 -8,566 -4,911 7,616 246,973 615,975 332,2 658,-269 650,-943 -3,-332 0,-663 0,-994l0 -1023 689 1c0,317 0,658 0,975 0,318 -2,635 0,952 11,2235 -2604,2256 -2598,246 1,-378 -13,-615 -13,-993l0 -1180 661 -2z"/>
   <path class="fil0" d="M5119 18801c0,-1541 0,-2965 0,-4506 332,0 617,0 949,-1 376,-2 658,139 851,313 191,172 287,427 287,769 0,209 -43,389 -130,542 -88,155 -220,280 -398,377 198,41 458,170 570,334 110,163 166,370 166,621 0,1194 -2275,1540 -2295,1551zm624 -2816c85,-2 199,-6 285,-9 588,-20 632,-623 360,-864 -151,-135 -449,-102 -645,-98 0,324 0,648 0,971zm0 1978c431,-4 1324,-378 856,-1080 -141,-211 -615,-131 -856,-119 0,369 0,831 0,1199z"/>
   <polygon class="fil1" points="13672,14293 14152,14773 12999,15926 14152,17078 13672,17558 12520,16405 11368,17557 10888,17078 12040,15926 10888,14774 11368,14294 12520,15446 "/>
   <rect class="fil1" transform="matrix(1.39331 0.306704 -0.434134 1.97221 17576.4 16460)" width="1328" height="323"/>
   <path class="fil0" d="M5327 13736l-102 0 0 -765c-7,8 -19,17 -34,27 -15,10 -32,20 -50,30 -19,9 -39,19 -60,27 -21,9 -41,16 -61,21l0 -103c23,-6 46,-14 71,-25 25,-10 50,-22 74,-35 24,-13 46,-26 68,-41 21,-14 40,-28 55,-41l39 0 0 905zm298 -23l0 -109c55,41 116,62 183,62 88,0 133,-30 133,-89 0,-17 -4,-32 -11,-43 -8,-12 -18,-22 -31,-31 -13,-9 -29,-18 -46,-25 -18,-7 -36,-15 -57,-22 -28,-12 -52,-23 -73,-34 -21,-11 -39,-24 -54,-38 -14,-15 -24,-31 -32,-49 -7,-18 -10,-39 -10,-63 0,-30 6,-56 20,-79 14,-23 32,-42 54,-58 23,-15 49,-27 78,-34 29,-8 59,-12 90,-12 54,0 103,9 147,28l0 103c-47,-31 -100,-46 -161,-46 -19,0 -36,2 -51,7 -15,4 -28,10 -39,18 -11,8 -20,17 -26,28 -6,11 -9,23 -9,36 0,16 3,30 9,41 6,11 15,21 27,30 11,9 25,16 42,23 16,7 35,15 56,23 28,11 53,22 75,33 22,12 41,24 57,39 16,14 28,30 36,49 8,18 13,40 13,66 0,31 -7,58 -21,81 -14,23 -32,42 -55,58 -23,15 -50,26 -80,34 -30,7 -61,11 -95,11 -64,0 -121,-13 -169,-38zm869 17c-24,13 -56,19 -95,19 -111,0 -166,-61 -166,-185l0 -374 -109 0 0 -86 109 0 0 -155 101 -33 0 188 160 0 0 86 -160 0 0 356c0,43 7,73 22,91 14,18 38,27 72,27 25,0 47,-7 66,-21l0 87zm495 6l0 -885 252 0c76,0 137,18 182,56 45,37 67,86 67,146 0,50 -13,94 -41,131 -27,37 -64,63 -112,79l0 3c60,6 108,29 143,67 36,38 54,88 54,149 0,75 -27,137 -81,184 -55,47 -123,70 -206,70l-258 0zm104 -792l0 286 106 0c56,0 101,-13 134,-41 32,-27 48,-66 48,-116 0,-86 -56,-129 -169,-129l-119 0zm0 379l0 319 140 0c61,0 108,-14 142,-43 34,-29 50,-69 50,-119 0,-104 -71,-157 -213,-157l-119 0zm1306 413l-115 0 -94 -248 -375 0 -88 248 -116 0 340 -885 107 0 341 885zm-243 -341l-139 -378c-4,-12 -9,-32 -13,-59l-3 0c-4,25 -8,45 -14,59l-138 378 307 0zm477 341l-104 0 0 -885 104 0 0 885zm849 0l-144 0 -343 -405c-12,-15 -20,-26 -23,-31l-2 0 0 436 -104 0 0 -885 104 0 0 416 2 0c6,-9 14,-19 23,-31l331 -385 130 0 -380 424 406 461zm803 0l-115 0 -94 -248 -376 0 -88 248 -115 0 339 -885 108 0 341 885zm-243 -341l-139 -378c-4,-12 -9,-32 -14,-59l-2 0c-4,25 -9,45 -14,59l-138 378 307 0zm832 341l-459 0 0 -885 104 0 0 791 355 0 0 94zm441 -36l0 -122c14,12 31,23 50,33 20,10 41,19 62,25 22,7 44,12 65,16 22,4 42,6 61,6 64,0 111,-12 143,-36 31,-24 47,-58 47,-102 0,-24 -5,-45 -16,-62 -10,-18 -25,-34 -43,-49 -19,-15 -41,-29 -66,-42 -25,-13 -53,-27 -82,-42 -31,-16 -59,-32 -86,-48 -27,-16 -50,-34 -70,-53 -20,-19 -35,-41 -47,-66 -11,-24 -17,-53 -17,-86 0,-40 9,-75 27,-105 18,-30 41,-54 70,-74 29,-19 61,-34 98,-43 37,-10 75,-14 113,-14 87,0 151,10 191,31l0 117c-52,-36 -120,-54 -201,-54 -23,0 -46,2 -69,7 -22,4 -42,12 -60,23 -18,10 -32,24 -43,41 -11,17 -17,38 -17,62 0,23 4,42 13,59 8,16 21,31 37,45 16,13 37,26 60,39 24,13 51,27 82,42 32,16 62,32 90,50 29,17 54,36 75,57 21,21 38,44 51,70 13,25 19,54 19,87 0,44 -9,81 -26,111 -17,31 -40,55 -69,74 -29,19 -63,33 -100,41 -38,8 -78,13 -120,13 -14,0 -31,-1 -52,-4 -20,-2 -42,-5 -63,-10 -21,-4 -42,-9 -61,-16 -19,-6 -34,-13 -46,-21zm1237 -756l-256 0 0 792 -103 0 0 -792 -255 0 0 -93 614 0 0 93zm729 792l-115 0 -93 -248 -376 0 -88 248 -116 0 340 -885 107 0 341 885zm-243 -341l-138 -378c-5,-12 -9,-32 -14,-59l-2 0c-4,25 -9,45 -15,59l-137 378 306 0zm1087 341l-127 0 -456 -706c-11,-18 -21,-36 -28,-55l-4 0c4,19 5,59 5,121l0 640 -103 0 0 -885 134 0 443 694c19,29 31,49 36,59l3 0c-4,-25 -7,-68 -7,-130l0 -623 104 0 0 885zm835 -37c-65,34 -147,52 -245,52 -126,0 -226,-41 -302,-122 -76,-81 -114,-187 -114,-319 0,-142 43,-256 128,-343 85,-88 193,-131 324,-131 84,0 154,12 209,36l0 111c-63,-36 -133,-53 -210,-53 -102,0 -184,33 -247,101 -63,68 -95,159 -95,273 0,108 30,194 89,257 59,65 136,97 232,97 89,0 166,-20 231,-60l0 101zm650 37l-470 0 0 -885 450 0 0 93 -346 0 0 295 320 0 0 93 -320 0 0 310 366 0 0 94zm986 0l-469 0 0 -885 449 0 0 93 -346 0 0 295 320 0 0 93 -320 0 0 310 366 0 0 94zm828 -885l-328 885 -114 0 -321 -885 116 0 245 702c8,22 14,48 18,78l2 0c3,-25 10,-51 21,-80l250 -700 111 0zm597 885l-469 0 0 -885 449 0 0 93 -346 0 0 295 320 0 0 93 -320 0 0 310 366 0 0 94zm884 0l-127 0 -456 -706c-11,-18 -21,-36 -28,-55l-4 0c3,19 5,59 5,121l0 640 -104 0 0 -885 135 0 443 694c19,29 31,49 36,59l3 0c-5,-25 -7,-68 -7,-130l0 -623 104 0 0 885zm756 -792l-256 0 0 792 -104 0 0 -792 -255 0 0 -93 615 0 0 93z"/>
   <g>
    <path class="fil0" d="M13562 19076c-116,0 -211,-87 -211,-196 0,-107 95,-196 211,-196 116,0 211,89 211,196 0,109 -95,196 -211,196zm-196 -661c0,-100 89,-181 196,-181 108,0 195,81 195,181 0,101 -87,182 -195,182 -107,0 -196,-81 -196,-182zm352 224c76,-48 126,-131 126,-224 0,-148 -126,-268 -282,-268 -155,0 -283,120 -283,268 0,93 51,176 126,224 -84,51 -141,139 -141,241 0,157 134,283 298,283 164,0 298,-126 298,-283 0,-102 -57,-190 -142,-241z"/>
    <polygon class="fil0" points="12711,18318 12760,18391 12959,18253 12959,19163 13047,19164 13046,18147 12959,18147 "/>
    <path class="fil0" d="M12522 18855c0,59 -23,115 -65,156 -42,42 -98,65 -157,65 -58,0 -115,-23 -156,-65 -42,-41 -65,-97 -65,-156l0 -400c0,-59 23,-115 65,-156 41,-42 98,-65 156,-65 59,0 115,23 157,65 42,41 65,97 65,156l0 400zm-3 -618c-59,-58 -136,-90 -219,-90 -82,0 -160,32 -218,90 -58,58 -90,136 -90,218l0 400c0,82 32,160 90,218 58,58 136,90 218,90 83,0 161,-32 219,-90 58,-58 90,-136 90,-218l0 -400c0,-82 -32,-160 -90,-218z"/>
    <path class="fil0" d="M11832 18437c0,-160 -131,-290 -290,-290 -153,0 -279,119 -289,268l87 0c10,-101 97,-181 202,-181 111,0 203,91 203,203 0,115 -105,228 -182,309l-312 330 0 87 537 -1 1 -86 -417 0 255 -269c73,-77 205,-216 205,-370z"/>
   </g>
   <g>
    <path class="fil0" d="M4905 10051c7,16 22,39 38,63 45,67 135,163 234,256 105,98 219,191 298,240 86,54 338,158 589,241 192,63 473,60 572,61 238,3 245,9 312,67 22,19 393,273 400,275 115,34 237,64 336,87 39,9 120,25 223,42 67,12 144,25 228,38l-100 -3209c-358,118 -805,327 -1127,479 -322,152 -520,246 -743,419 -314,244 -610,418 -826,571 -76,55 -358,316 -434,370zm3372 -1760l102 3256 4 127 -153 -19c-125,-20 -252,-41 -359,-59 -110,-19 -196,-36 -236,-45 -273,-64 -618,-225 -829,-409 -13,-12 -14,-13 -172,-14 -124,-2 -428,-4 -637,-73 -265,-87 -538,-201 -636,-261 -89,-56 -215,-159 -331,-267 -110,-103 -212,-213 -266,-294 -36,-53 -70,-105 -78,-168 -14,-94 42,-194 132,-230 104,-86 248,-188 426,-314 218,-155 487,-346 789,-581 236,-183 538,-357 875,-515 361,-171 969,-438 1361,-481l8 347zm-1905 1289l103 92 -566 571 -104 -92 567 -571zm117 549l-97 99 -601 -535 98 -98 600 534zm111 -1347l26 -84 63 60c38,37 54,214 122,379 55,133 173,264 160,318l-27 108c-129,-165 -413,-554 -344,-781zm347 106c-39,-82 -71,-149 -86,-186l-8 -22 73 -153 54 60c57,65 173,313 262,555 72,199 128,397 118,491l-10 108 -80 -73c-45,-42 -74,-172 -92,-250l-1 -3c-48,-149 -153,-368 -230,-527zm597 770l-85 -355c-23,-47 -39,-93 -56,-140 -30,-87 -63,-180 -148,-289 -24,-32 -55,-76 -84,-120 -36,-54 -71,-109 -89,-139l-13 -23 62 -145 56 56c61,61 136,182 205,318 78,153 150,326 188,450 17,56 34,116 48,180 14,64 23,130 22,195l-5 435 -101 -423zm278 -611c31,124 50,237 37,291l-23 98 -69 -74c-29,-30 -47,-107 -71,-212 -56,-240 -105,-481 -367,-675 -56,-42 -87,-73 -98,-93 -33,-55 3,-58 59,-66 16,-2 19,-26 43,-16 53,22 146,85 220,174 33,38 63,78 91,123 28,45 55,95 80,154 29,70 54,115 98,296z"/>
    <path class="fil0" d="M14282 11158l10 -4c99,-37 243,-93 533,-166 83,-27 139,-50 178,-66 62,-26 93,-39 143,-33 47,5 118,49 179,85 40,25 58,35 152,83 171,88 389,165 625,218 190,42 391,69 586,73 0,-88 -14,-166 -26,-237 -32,-177 -58,-325 76,-518 14,-20 30,-39 46,-58 20,-23 39,-46 49,-67 5,-11 6,-37 7,-62 6,-105 21,-155 93,-232 12,-13 24,-26 25,-35 140,-42 -184,-184 143,-263l16 -3c187,-34 365,-32 528,5 167,39 318,114 450,224 32,27 82,60 126,88 95,61 200,124 289,190 19,14 30,24 41,34 12,10 24,20 37,30 116,81 183,132 238,174 106,81 164,125 417,268l103 60c82,48 167,98 252,138 69,33 130,57 196,74 36,9 74,15 116,20 5,-126 16,-178 -56,-297 -135,-221 -275,-655 -448,-860 -172,-202 -286,-336 35,-675 10,-11 20,-22 29,-32 14,-16 27,-32 45,-48l299 -294c43,-46 83,-90 117,-137 34,-47 65,-99 92,-165 27,-64 52,-143 66,-225 7,-38 11,-75 13,-112 -97,-8 -221,2 -351,22 -255,39 -524,115 -666,166 -86,30 -208,80 -345,137 -398,164 -923,381 -1202,373 -154,-5 -391,-49 -631,-108 -270,-67 -548,-154 -717,-225 -31,-13 -90,-39 -138,-62 -39,-19 -74,-38 -93,-52l-12 -167c-10,-12 -20,-25 -30,-43 -42,-77 -19,-135 6,-195 6,-15 13,-30 13,-33 -1,-45 -16,-83 -30,-118 -35,-87 -67,-164 -8,-308 12,-29 11,-49 9,-70 -3,-30 -6,-61 2,-108 7,-46 26,-94 45,-139 8,-19 15,-38 21,-55 28,-80 6,-125 -20,-182l-15 -33c-168,19 -305,40 -433,70 -148,35 -286,81 -450,150 -212,89 -368,155 -514,229 -141,72 -274,152 -443,270l-47 35 102 3275 127 -4zm86 198l-45 17 -377 12 -113 -3604c47,-34 94,-71 141,-105 177,-123 318,-208 472,-286 150,-76 310,-144 528,-236 179,-75 327,-125 484,-161 157,-37 324,-60 541,-83l87 -9 27 83c10,31 24,62 37,90 47,101 85,181 29,344 -6,20 -16,43 -26,66 -13,34 -28,70 -31,91 -4,21 -2,39 -1,56 5,48 9,92 -23,170 -26,63 -10,102 8,146 21,53 43,109 45,195 1,48 -14,84 -28,120 -5,11 -25,-6 -17,8 4,6 12,14 20,21 30,29 61,58 86,132l20 59 41 18c159,66 425,149 686,214 227,56 447,97 585,101 233,7 734,-200 1113,-356 139,-58 262,-108 356,-141 152,-55 438,-135 706,-177 193,-29 382,-39 514,-4l72 19 9 73c9,81 3,168 -12,253 -18,99 -48,195 -79,271 -35,82 -74,149 -118,209 -43,58 -88,108 -136,160 -91,95 -209,213 -306,300 -12,11 -20,21 -30,33 -10,11 -20,23 -35,39 -188,199 -124,274 -28,388 216,254 297,606 468,887 128,210 81,401 99,632l-118 -1c-109,-2 -196,-13 -277,-33 -81,-20 -154,-49 -236,-88 -96,-46 -184,-97 -269,-148l-100 -57c-265,-150 -328,-198 -442,-285 -55,-42 -123,-93 -230,-169 -26,-18 -40,-30 -55,-43l-27 -22 -278 -184c-51,-33 -109,-70 -148,-103 -106,-89 -227,-149 -360,-179 -131,-31 -274,-33 -425,-7 5,26 5,57 -1,95 -13,73 -47,109 -81,145 -10,11 -21,23 -26,31 -5,11 -7,37 -8,63 -2,45 -5,91 -27,141 -21,47 -51,82 -80,117 -12,14 -24,28 -34,42 -83,119 -64,228 -41,358 20,111 42,236 23,395l-11 94 -95 1c-246,4 -500,-26 -736,-79 -253,-56 -489,-139 -677,-237 -100,-51 -163,-89 -206,-115l-49 -30c-3,0 -10,7 -38,18 -40,17 -99,41 -198,73l-6 2c-281,71 -419,124 -513,160zm-11 -3347c-26,16 -27,28 -65,51l-142 -38 65 -64c14,-15 57,-43 98,-67 146,-86 157,-104 286,-186 88,-56 199,-105 294,-158l2 -2c4,-4 11,-10 23,-19 25,-17 142,-72 170,-82 66,-28 269,-111 430,-158 106,-32 200,-47 242,-24l61 34 -48 50c-36,38 -177,74 -297,104 -57,15 -109,28 -138,38 -324,123 -391,160 -645,307l-20 11c-10,6 -18,12 -27,18 -47,34 -240,155 -289,185zm243 152l-159 -39 77 -68c146,-127 276,-174 457,-270 107,-55 226,-108 338,-156 101,-44 276,-120 376,-107l179 24 -163 78c-59,28 -132,52 -206,75 -58,18 -116,37 -166,58 -23,9 -61,27 -104,47 -197,92 -332,169 -500,255 -21,11 -111,98 -129,103zm406 84l-42 17 -212 -39c7,-19 169,-68 201,-88l6 -4c18,-9 44,-25 72,-42 97,-59 204,-102 291,-156l74 -45c37,-20 99,-51 159,-74 104,-41 165,-73 274,-83 -100,128 -91,145 -243,212 -231,102 -296,142 -486,255 -33,19 -66,37 -94,47zm420 86c-50,-19 -181,-51 -181,-51 142,-189 398,-213 594,-288 -16,25 -29,40 -36,59 -10,15 -14,22 -26,31 -107,84 -243,151 -351,249zm2628 888c-11,6 -20,10 -31,16 -14,6 -15,6 -26,6l-147 26 89 -111 8 -11c5,-9 8,-13 18,-20l1 -1c7,-5 11,-6 19,-8 2,0 6,-2 17,-6 75,-44 158,-84 241,-124 52,-25 105,-51 148,-73 62,-32 128,-64 193,-95 71,-33 145,-66 216,-97 92,-39 363,-117 602,-182 149,-42 286,-65 359,-44l6 2 5 3c11,2 18,7 23,12l1 1c42,39 60,48 7,58 -14,16 -123,35 -153,44 -44,13 -91,26 -138,35 -36,7 -76,15 -118,25 -41,9 -81,19 -118,29 -385,102 -646,236 -865,349 -126,65 -239,123 -357,166zm616 -193c139,-59 324,-127 509,-179 142,-39 283,-67 405,-73l145 -6c-77,72 -98,124 -204,146 -64,13 -115,22 -162,31 -118,22 -206,39 -382,94 -80,24 -154,55 -232,86 -134,54 -261,115 -395,169l-20 8c-35,14 -42,24 -67,37 -11,5 -16,5 -28,7l-198 29 137 -121c26,-23 433,-202 490,-228l2 0zm623 54c70,-3 90,32 96,46l26 52 -106 43 -10 0c-24,0 -83,13 -150,32 -112,30 -243,72 -292,89 -52,18 -104,38 -157,59 -88,33 -175,67 -253,89l-371 104 328 -202c68,-42 212,-100 367,-155 89,-31 436,-154 522,-157zm-509 475c23,0 44,0 59,0l77 -3c171,-8 75,-8 240,21 -37,15 -21,104 -45,114 -150,64 -144,2 -397,6 -61,1 -116,2 -150,4l-187 -72c158,-19 232,-72 403,-70zm548 757l-59 -10c-84,-5 -272,-105 -458,-203 -105,-56 -217,-118 -328,-162 -151,-100 -205,-123 -334,-149l29 -31c26,-32 46,-49 89,-50 29,-1 64,10 123,31 66,24 415,181 675,307 121,59 225,116 281,161 30,24 46,44 44,59l-6 57 -56 -10zm265 525l155 37 -105 75c-78,32 -217,-77 -316,-137 -163,-96 -205,-112 -355,-238 -13,-11 -26,-20 -39,-29 -16,-10 -31,-21 -47,-34l-256 -205c-63,-40 -106,-68 -144,-94 -118,-78 -189,-125 -387,-211l-19 -8c-11,-5 -17,-7 -25,-13 -12,-9 -15,-15 -22,-26l-51 -82 83 -11c122,-16 312,114 450,208 38,26 72,49 97,64 73,44 155,106 232,169 236,148 527,403 749,535zm-3447 -849c54,-25 85,-17 140,-4 36,8 504,230 530,232 -147,58 -268,20 -425,-43 -72,-29 -199,-49 -255,-94l-69 -54 79 -37zm-250 151c313,134 531,278 820,405 -100,41 -933,-250 -1019,-307l-67 -45 216 -74c-101,-28 10,4 50,21zm547 530l138 164c-410,-193 -838,-172 -1191,-439l-64 -48 135 -82 25 10c37,15 52,28 70,45 154,137 640,211 887,350zm58 454c-406,-177 -984,-282 -1117,-341 -48,-21 -91,-46 -135,-73 -50,-31 -168,-53 -169,-120l119 -123c123,127 1055,453 1313,563l82 57 -93 37z"/>
    <path class="fil0" d="M9923 10909c13,23 37,47 68,64 27,15 58,24 89,21 30,-2 63,-17 95,-50 43,-45 84,-120 118,-234 48,-221 138,-473 234,-726l219 -7 -246 795c-45,150 -104,253 -170,321 -72,75 -153,109 -231,116 -78,7 -151,-13 -213,-48 -65,-37 -119,-90 -150,-144 -55,-95 -113,-496 -165,-857l-21 -146 91 -2 -49 -697 40 -76c33,351 159,1494 291,1670zm833 -1543c12,-35 23,-70 34,-104 133,571 164,927 319,1593 19,38 51,71 91,87 34,14 76,15 122,-1 118,-43 179,-267 233,-466 15,-54 29,-106 45,-155 8,-28 28,-95 52,-177 17,-60 37,-128 57,-196l293 -9 -51 -377 -18 -257 39 -108c88,419 159,1448 319,1646 18,28 57,53 104,65 45,12 95,12 143,-7 79,-31 95,-84 124,-180l17 -55c18,-57 51,-166 90,-297 43,-141 93,-307 140,-459l287 -9 -71 -703 -17 1 45 -264c47,397 230,1927 408,1926l1 1c39,16 82,21 122,15 22,-2 42,-8 61,-17l7 224c-13,3 -26,5 -40,7 -76,10 -157,1 -233,-30 -225,-94 -256,-337 -287,-590 -6,-48 -12,-96 -20,-145l-56 -357c-46,150 -97,319 -140,462 -41,135 -74,247 -91,299l-16 53c-49,161 -76,250 -253,319 -92,37 -190,37 -275,15 -98,-26 -183,-84 -230,-155 -63,-95 -86,-261 -105,-396 -28,-191 -57,-382 -85,-573l-62 211c-23,79 -42,143 -54,182 -14,45 -28,95 -42,147 -68,249 -145,530 -367,612 -100,36 -195,30 -276,-2 -91,-37 -163,-108 -204,-191 -37,-74 -82,-390 -128,-708l-38 -266 90 -3 -84 -608zm-1213 649l-80 271c-74,255 -148,508 -194,628 -48,123 -110,206 -178,257 -57,43 -118,65 -177,71 -59,5 -115,-4 -166,-24 -69,-27 -129,-74 -166,-123 -103,-136 -103,-479 -103,-726 0,-52 0,-98 -1,-151 -2,-69 -4,-121 -6,-170l104 -3 -22 -705 -108 4c-14,-425 -26,-852 -15,-914 16,-93 59,-166 117,-219 56,-51 124,-82 195,-92 71,-11 145,-2 212,28 73,32 138,89 181,169 25,48 33,167 33,318 50,-177 117,-375 215,-459 58,-49 132,-79 210,-88 76,-10 157,0 229,30 223,94 250,305 285,571 6,52 13,107 23,164 16,99 20,259 22,438l-105 4 8 705 184 -6c-48,169 -102,337 -169,512 -69,-360 -130,-646 -132,-1019 -1,-243 -5,-360 -19,-491 -9,-59 -19,-225 -26,-280 -25,-197 -46,-353 -155,-399 -37,-15 -79,-20 -119,-16 -37,5 -71,18 -95,39 -69,59 -133,291 -178,459 -12,44 -23,84 -33,115 -7,24 -27,123 -50,243 -10,51 -21,104 -32,158l-188 11 -41 602 -62 84 -29 -278c-8,-81 4,-291 17,-527 20,-342 43,-740 17,-788 -19,-36 -47,-60 -78,-74 -29,-13 -61,-17 -93,-12 -30,5 -59,17 -82,38 -24,22 -42,54 -49,96 -13,74 21,985 39,1471l11 274c1,32 1,92 1,158 0,217 0,518 58,596 16,20 41,40 73,52 20,8 43,12 67,10 22,-2 45,-11 68,-28 38,-29 75,-80 107,-162 41,-107 115,-359 188,-611 20,-69 40,-138 60,-204l227 -7zm657 -726l30 -120c84,-329 162,-635 191,-730l12 -39c52,-169 80,-259 264,-328 90,-33 183,-34 267,-11 91,25 171,78 224,148 76,101 89,578 101,1044l-107 5 76 703 158 -5c-27,101 -51,187 -71,248l-80 249c-57,-263 -241,-2103 -250,-2115 -24,-32 -63,-57 -108,-69 -42,-12 -90,-12 -135,5 -84,32 -101,86 -133,190l-12 39c-26,82 -104,389 -187,718l-16 61 -224 7zm1174 -40c49,-192 94,-365 126,-466 14,-44 29,-99 44,-155 68,-251 142,-525 377,-599 100,-31 191,-24 268,9 89,38 157,108 196,188 37,76 57,497 76,933l3 59 -118 4 21 666 23 38 204 -7 -174 635c-137,-527 -148,-830 -174,-1386 -18,-413 -37,-811 -54,-846 -18,-37 -48,-69 -87,-85 -32,-14 -73,-17 -119,-2 -123,38 -181,253 -234,449 -14,55 -28,109 -46,164 -27,84 -65,227 -107,391l-225 10zm1190 -34c46,-167 92,-335 140,-501 71,-255 168,-601 349,-696 96,-51 193,-58 278,-37 99,25 182,90 229,169 50,84 87,561 117,1030l-113 4 43 704 107 -4 31 975 -53 47 -85 -32c-50,-306 -106,-1022 -124,-1334 -31,-529 -72,-1219 -109,-1281 -19,-31 -53,-58 -95,-68 -37,-9 -81,-6 -125,18 -99,52 -182,346 -243,562l-31 109 -90 328 -226 7z"/>
    <path class="fil0" d="M8640 9338l25 790 -474 15c-29,-319 -41,-557 -46,-876l492 -15 3 86zm-154 623l-16 -532 -150 5 3 253 25 279 138 -5zm639 -554l-37 535 460 -14 -38 -544 -385 23zm-215 619l1 -304 52 -479 648 -15 122 867 -830 26 7 -95zm1051 -816l774 -24 204 871 -906 29 -72 -876zm174 167l6 532 601 -18 -73 -530 -534 16zm1143 -37l57 532 569 -18c-26,-193 -43,-347 -57,-541l-569 27zm-153 -165l822 -40 115 887 -850 27 -87 -874zm1221 731l-89 -768 886 -28 148 874 -949 30 4 -108zm90 -601l16 532 648 -20 -53 -531 -611 19zm1085 588l-48 -793 495 -15 5 172 -317 10 32 532 302 -10 5 173 -469 15 -5 -84z"/>
    <path class="fil1" d="M10590 9271c21,-175 48,-250 114,-410l12 41c37,127 51,217 74,360 5,29 4,31 -11,53 -15,22 -38,38 -67,44 -28,5 -56,-1 -78,-16 -22,-16 -39,-39 -44,-68l0 -2 0 -2zm1179 -109c35,-165 69,-253 136,-405l11 42c38,144 52,279 63,433l-29 12c-1,29 14,-16 -6,2 -19,18 -46,28 -75,27 -29,-1 -54,-14 -73,-34 -18,-19 -28,-46 -27,-75l0 -2zm1198 29c30,-224 54,-337 111,-557l17 -66 13 67c40,221 56,328 68,552l0 0c1,29 -10,56 -29,75 -18,20 -44,32 -73,33 -29,1 -55,-10 -75,-28 -19,-19 -32,-44 -33,-73l1 -3zm-3534 52c28,-206 48,-240 122,-437 32,125 48,162 75,390 5,36 8,92 -17,118 -18,20 -44,32 -73,33 -29,1 -55,-10 -75,-28 -19,-18 -32,-44 -33,-73l1 -3z"/>
   </g>
  </g>
 </g>
</svg>
