<?xml version="1.0" encoding="UTF-8"?>
<!DOCTYPE svg PUBLIC "-//W3C//DTD SVG 1.1//EN" "http://www.w3.org/Graphics/SVG/1.1/DTD/svg11.dtd">
<!-- Creator: CorelDRAW X8 -->
<svg xmlns="http://www.w3.org/2000/svg" xml:space="preserve" width="150mm" height="130mm" version="1.1" style="shape-rendering:geometricPrecision; text-rendering:geometricPrecision; image-rendering:optimizeQuality; fill-rule:evenodd; clip-rule:evenodd"
viewBox="0 0 15000 13000"
 xmlns:xlink="http://www.w3.org/1999/xlink">
 <defs>
  <style type="text/css">
   <![CDATA[
    .fil1 {fill:#FEFEFE}
    .fil0 {fill:#FEFEFE;fill-rule:nonzero}
   ]]>
  </style>
 </defs>
 <g id="Слой_x0020_1">
  <metadata id="CorelCorpID_0Corel-Layer"/>
  <g id="_2206126769040">
   <path class="fil0" d="M11566 11832c547,-1243 983,-2261 1473,-3526l991 3 717 4300 -699 -175 -588 -3488 -1250 3044 -644 -158z"/>
   <path class="fil0" d="M10294 11602c0,-867 0,-1734 0,-2601l-998 -7 0 -685 2716 1 0 692 -998 -2c0,906 0,1812 0,2719l-720 -117z"/>
   <path class="fil0" d="M3650 8309l0 1036c0,333 -9,547 -5,879 7,595 238,939 594,941 320,1 634,-260 627,-910 -3,-320 0,-640 0,-959l0 -986 664 0c0,306 0,635 0,941 0,306 -1,613 0,918 11,2156 -2512,2177 -2506,238 1,-366 -12,-593 -12,-959l0 -1138 638 -1z"/>
   <path class="fil0" d="M355 12658c0,-1486 0,-2860 0,-4346 320,0 595,-1 916,-2 362,-1 634,135 821,302 184,166 277,412 277,742 0,202 -42,376 -126,523 -85,149 -212,270 -384,364 191,39 441,163 549,322 107,157 161,356 161,599 0,1151 -2195,1485 -2214,1496zm602 -2716c82,-3 192,-7 275,-9 568,-20 610,-601 348,-834 -147,-130 -434,-98 -623,-94 0,313 0,625 0,937zm0 1908c416,-4 1277,-365 826,-1043 -136,-203 -594,-126 -826,-114 0,356 0,801 0,1157z"/>
   <polygon class="fil1" points="8606,8310 9069,8773 7957,9884 9069,10996 8606,11459 7494,10347 6383,11458 5920,10995 7031,9884 5920,8773 6383,8310 7494,9421 "/>
   <polygon class="fil1" points="12422,10385 14225,10686 14121,11306 12318,11005 "/>
   <path class="fil0" d="M1156 6677l-14 109 -697 -89c22,30 43,68 63,114 19,46 33,87 41,122l-105 -13c-21,-65 -49,-123 -85,-174 -35,-51 -70,-89 -106,-113l9 -70 894 114zm-244 -352l15 -111c45,5 84,1 117,-11 32,-12 62,-37 88,-72 27,-36 46,-79 57,-128 11,-45 13,-85 8,-122 -6,-37 -18,-66 -37,-88 -20,-22 -43,-36 -70,-42 -27,-6 -52,-4 -77,7 -24,12 -47,34 -69,67 -15,22 -41,70 -79,146 -38,76 -69,128 -93,157 -32,36 -67,61 -104,74 -37,13 -75,15 -116,5 -44,-10 -82,-32 -115,-66 -33,-34 -53,-77 -62,-130 -9,-53 -7,-108 7,-167 15,-65 38,-120 71,-164 32,-45 72,-76 118,-93 47,-18 96,-21 148,-12l-17 114c-56,-7 -103,3 -139,31 -36,28 -62,76 -77,143 -17,70 -16,124 3,162 18,38 45,61 82,69 31,8 59,2 85,-16 25,-17 60,-71 103,-160 43,-89 76,-149 100,-181 35,-45 73,-76 115,-92 41,-16 86,-18 132,-7 47,10 88,34 122,70 35,36 59,82 70,137 11,55 10,114 -5,176 -18,79 -45,143 -80,191 -36,48 -80,82 -133,101 -53,20 -109,24 -168,12zm576 -997l-737 -291 -109 275 -98 -38 261 -662 98 39 -108 275 737 291 -44 111zm707 -1383l-706 -555 209 -265c42,-53 83,-91 123,-113 40,-21 82,-29 126,-24 44,5 82,20 115,45 30,24 52,55 66,92 14,37 16,79 6,124 46,-32 94,-49 142,-48 48,1 93,18 134,50 33,26 58,57 75,93 18,37 26,71 26,104 -1,32 -10,67 -26,104 -17,38 -43,79 -78,124l-212 269zm-335 -415l120 -153c32,-41 53,-73 61,-95 12,-30 14,-57 7,-82 -7,-25 -22,-47 -47,-66 -24,-19 -49,-30 -75,-32 -27,-3 -52,3 -75,19 -23,16 -55,49 -94,100l-111 141 214 168zm326 256l138 -175c24,-31 39,-53 47,-67 13,-24 21,-47 23,-69 2,-22 -2,-44 -11,-67 -10,-23 -27,-43 -49,-60 -27,-21 -55,-32 -85,-34 -30,-2 -58,6 -85,24 -27,17 -58,49 -93,94l-128 163 243 191zm459 -435l-370 -888 94 -90 884 398 -98 93 -262 -125 -274 261 117 264 -91 87zm-67 -445l221 -212 -240 -115c-72,-35 -131,-66 -175,-91 31,51 59,104 83,159l111 259zm765 -207l-555 -706 94 -73 555 706 -94 73zm245 -213l-484 -756 100 -64 240 375 135 -616 136 -87 -121 510 619 237 -132 85 -513 -209 -47 199 167 262 -100 64zm624 -404l-102 -956 116 -59 734 632 -120 62 -216 -195 -337 172 38 287 -113 57zm62 -445l273 -140 -197 -179c-60,-54 -107,-100 -143,-137 16,57 27,116 35,176l32 280zm775 40l-287 -850 112 -39 254 751 418 -141 34 99 -531 180zm1589 -683l110 -18c9,44 24,80 46,108 21,27 53,48 95,63 42,14 88,20 139,16 45,-3 85,-13 118,-29 34,-16 58,-37 73,-62 15,-25 22,-51 20,-78 -2,-28 -12,-52 -30,-72 -18,-19 -46,-35 -85,-46 -24,-8 -79,-18 -163,-32 -83,-13 -142,-28 -177,-43 -44,-19 -78,-44 -101,-76 -24,-31 -37,-68 -40,-109 -4,-45 6,-89 29,-130 22,-41 57,-74 105,-98 48,-24 102,-38 162,-43 66,-5 126,1 178,19 52,17 94,46 124,85 31,40 49,86 55,138l-113 17c-11,-56 -34,-97 -72,-123 -37,-26 -90,-37 -159,-31 -72,5 -123,22 -154,51 -31,29 -45,62 -42,99 3,32 16,57 41,76 24,19 85,36 183,51 98,14 166,28 203,42 54,20 94,47 122,82 28,35 43,76 47,124 3,48 -7,93 -31,138 -24,44 -60,79 -110,107 -49,27 -105,43 -169,48 -81,6 -150,-1 -206,-20 -57,-20 -102,-52 -137,-97 -35,-45 -55,-97 -61,-157zm1123 266l61 -790 -295 -23 7 -105 709 54 -8 105 -295 -22 -60 790 -119 -9zm347 22l497 -823 128 22 202 949 -133 -24 -54 -286 -373 -67 -143 251 -124 -22zm319 -318l301 54 -48 -261c-15,-80 -25,-145 -31,-196 -22,55 -49,109 -79,161l-143 242zm597 498l288 -850 115 39 221 818 226 -667 108 36 -288 851 -116 -39 -220 -819 -226 668 -108 -37zm1568 316l92 81c-67,75 -140,121 -221,137 -81,16 -163,3 -246,-40 -86,-44 -147,-97 -183,-160 -36,-62 -51,-134 -45,-215 6,-81 28,-159 67,-236 43,-83 96,-147 159,-193 64,-45 133,-69 208,-71 75,-3 148,14 218,50 80,41 137,96 171,165 33,68 42,145 26,229l-117 -28c12,-68 6,-124 -15,-168 -22,-45 -59,-81 -113,-108 -61,-31 -120,-43 -176,-35 -56,9 -105,33 -147,74 -42,41 -77,88 -104,141 -35,68 -55,132 -61,193 -7,61 5,114 33,161 29,46 68,82 116,107 60,30 118,38 177,25 58,-13 112,-50 161,-109zm89 415l520 -732 529 376 -61 86 -432 -307 -159 225 403 287 -61 86 -403 -287 -178 249 449 319 -61 86 -546 -388zm1419 1227l706 -555 401 510 -83 65 -327 -416 -217 171 306 389 -83 65 -306 -389 -240 189 340 432 -83 66 -414 -527zm632 887l605 -748 64 111 -449 528c-36,42 -71,80 -104,114 49,-13 100,-23 151,-32l686 -115 61 105 -953 144 -61 -107zm286 509l835 -329 238 603 -98 38 -194 -492 -257 101 182 461 -98 39 -182 -461 -284 112 202 512 -98 39 -246 -623zm313 774l875 -202 27 119 -581 617 687 -158 26 111 -875 202 -28 -119 581 -617 -687 158 -25 -111zm224 1112l786 -100 -37 -294 105 -13 89 705 -104 13 -38 -293 -786 100 -15 -118z"/>
   <path class="fil0" d="M2776 5344c5,13 13,31 23,49 25,52 78,127 136,200 62,77 129,151 177,190 50,43 201,128 351,197 116,53 286,57 346,61 144,7 148,12 188,58 13,15 233,217 237,219 69,28 142,54 201,74 24,8 73,21 135,37 40,11 87,22 137,35l0 -2444c-299,111 -897,407 -1149,638 -195,179 -378,304 -512,415 -47,40 -222,232 -270,271zm2077 -1258l0 2479 0 96 -92 -18c-76,-18 -152,-36 -217,-53 -66,-17 -118,-32 -142,-40 -164,-55 -370,-186 -494,-331 -8,-9 -9,-10 -104,-15 -75,-4 -259,-12 -385,-70 -159,-72 -322,-165 -380,-214 -53,-44 -128,-126 -196,-211 -65,-81 -124,-166 -155,-229 -21,-42 -40,-82 -45,-130 -6,-72 30,-147 85,-172 65,-63 154,-137 264,-229 135,-112 302,-252 489,-423 146,-134 333,-259 540,-371 222,-121 595,-310 833,-333l-1 264zm-1197 1001l61 72 -336 355 -61 -72 336 -355zm79 355l-61 72 -372 -355 61 -72 372 355z"/>
   <path class="fil0" d="M4322 5387l-45 272c-13,36 -22,71 -31,108 -17,66 -35,138 -84,223 -15,25 -32,60 -49,93 -21,42 -41,85 -51,108l-8 18 40 109 33 -44c36,-48 79,-142 119,-247 44,-118 84,-252 105,-347 9,-43 19,-89 26,-138 7,-49 11,-99 10,-149l-12 -331 -53 325zm180 458c16,-95 25,-181 17,-222l-16 -74 -41 57c-16,24 -26,83 -39,164 -29,183 -54,368 -209,522 -33,33 -51,57 -58,73 -19,43 3,44 37,49 10,1 13,19 26,11 32,-18 87,-68 131,-138 19,-30 36,-60 53,-95 16,-35 31,-74 45,-119 16,-54 30,-89 54,-228z"/>
   <path class="fil0" d="M8436 6409l6 -2c61,-27 149,-65 327,-114 50,-19 85,-35 108,-46 39,-18 58,-27 88,-22 28,5 70,40 106,69 25,20 35,28 91,67 102,71 232,135 374,180 115,37 236,62 354,70 2,-67 -5,-126 -11,-181 -16,-136 -29,-249 56,-392 9,-15 19,-29 29,-43 12,-17 24,-34 30,-50 4,-9 5,-28 6,-47 5,-79 15,-118 61,-174 7,-10 15,-19 16,-26 85,-29 -108,-144 91,-197l10 -2c114,-22 222,-16 320,17 100,33 190,94 268,181 19,21 49,47 75,70 56,49 118,99 171,151 11,11 18,19 25,27 7,8 14,16 21,23 69,65 109,106 141,139 63,63 97,98 248,214l61 47c49,39 99,79 150,112 41,26 78,46 117,60 22,8 45,14 70,18 6,-96 14,-135 -28,-227 -78,-172 -154,-505 -255,-665 -101,-158 -167,-262 34,-513 6,-7 12,-15 18,-23 9,-12 17,-24 28,-36l187 -216c27,-34 52,-67 74,-102 21,-34 41,-73 58,-123 18,-48 34,-108 45,-170 4,-28 8,-57 9,-84 -58,-9 -133,-4 -213,8 -155,24 -319,75 -406,110 -53,21 -127,57 -212,96 -244,116 -566,268 -735,256 -93,-7 -236,-47 -380,-97 -162,-58 -329,-131 -430,-188 -19,-11 -54,-32 -83,-51 -23,-16 -44,-31 -55,-42l-4 -127c-6,-9 -12,-20 -17,-33 -25,-60 -9,-104 7,-149 4,-11 8,-23 8,-25 0,-34 -8,-63 -16,-90 -19,-67 -37,-127 2,-235 7,-22 7,-37 6,-53 -1,-23 -2,-47 3,-82 5,-34 18,-70 30,-105 5,-14 10,-28 14,-41 18,-60 6,-95 -9,-139l-8 -25c-103,11 -185,23 -264,43 -90,23 -175,54 -275,103 -130,63 -226,110 -316,162 -87,52 -169,109 -273,195l-30 26 0 2493 77 0zm49 153l-28 12 -229 0 0 -2744c29,-25 58,-52 88,-77 109,-89 196,-150 291,-206 92,-54 191,-102 324,-167 110,-53 201,-87 297,-111 95,-24 197,-38 329,-51l52 -4 15 64c6,23 14,47 21,69 27,78 48,140 11,262 -4,15 -10,32 -17,50 -9,26 -18,52 -21,68 -2,16 -1,30 -1,43 2,37 4,70 -17,129 -17,47 -8,77 2,111 12,41 24,84 24,149 -1,37 -11,64 -20,91 -3,8 -14,-5 -10,5 2,6 7,12 11,17 18,23 37,46 50,102l11 46 25 14c95,55 254,124 411,180 137,48 269,85 353,91 141,10 448,-135 681,-245 85,-40 161,-76 218,-99 93,-38 268,-92 431,-117 118,-18 232,-21 312,9l43 15 4 57c4,61 -2,128 -12,192 -13,75 -33,147 -53,204 -23,62 -48,111 -76,156 -27,44 -55,80 -85,119 -57,70 -131,157 -191,221 -7,8 -13,15 -19,24 -6,8 -12,17 -22,29 -118,146 -80,205 -24,294 126,198 168,468 267,686 73,163 41,307 48,483l-72 -4c-66,-3 -118,-14 -167,-31 -49,-17 -92,-41 -141,-73 -58,-37 -110,-78 -161,-118l-59 -46c-158,-121 -195,-158 -262,-227 -33,-33 -73,-75 -137,-135 -15,-14 -23,-24 -32,-34l-16 -17 -165 -146c-30,-27 -64,-56 -88,-82 -62,-70 -135,-119 -214,-145 -79,-27 -166,-32 -258,-15 3,19 3,43 -2,71 -10,56 -31,82 -52,109 -6,8 -13,17 -16,23 -4,8 -5,28 -6,48 -2,34 -5,69 -19,106 -14,35 -33,61 -51,87 -8,11 -15,21 -21,32 -53,88 -43,171 -32,271 10,85 21,180 6,301l-8 71 -57 -1c-149,-3 -303,-32 -445,-77 -152,-49 -293,-118 -405,-197 -60,-41 -97,-72 -123,-93l-29 -24c-2,0 -7,5 -24,13 -24,12 -60,29 -121,51l-4 1c-171,48 -256,84 -313,110zm56 -2547c-16,12 -17,21 -40,38l-85 -33 40 -47c9,-10 35,-31 61,-48 90,-62 97,-76 177,-135 54,-40 122,-75 181,-113l1 -1c3,-4 7,-8 15,-14 15,-13 87,-52 104,-58 41,-21 165,-79 263,-111 65,-21 123,-31 147,-12l37 27 -30 37c-23,28 -109,52 -182,72 -35,10 -67,19 -85,25 -198,87 -239,113 -396,218l-12 9c-6,4 -12,9 -17,13 -30,25 -148,112 -179,133zm145 122l-96 -33 48 -50c91,-93 171,-126 282,-195 66,-39 139,-77 208,-111 62,-31 169,-84 229,-72l109 22 -101 56c-36,20 -81,36 -126,52 -35,13 -71,25 -102,40 -14,7 -37,20 -64,34 -121,65 -204,120 -308,182 -12,8 -68,72 -79,75zm244 74l-26 12 -127 -35c4,-14 103,-48 123,-63l4 -2c11,-7 27,-18 44,-30 60,-43 126,-73 180,-112l45 -33c23,-14 61,-36 97,-52 64,-29 102,-52 169,-57 -64,95 -59,109 -152,156 -142,72 -182,101 -299,182 -20,14 -41,27 -58,34zm253 75c-30,-16 -109,-43 -109,-43 90,-140 245,-153 365,-205 -10,19 -18,30 -22,44 -7,11 -10,16 -17,23 -66,61 -150,109 -217,181zm1575 738c-7,5 -12,7 -19,11 -9,4 -9,4 -16,5l-89 16 56 -83 4 -8c4,-6 5,-10 12,-15l0 0c5,-4 7,-5 12,-6 1,0 4,-1 10,-4 47,-32 98,-60 149,-89 32,-18 65,-36 91,-52 38,-23 79,-46 119,-67 43,-24 89,-47 132,-69 57,-28 223,-80 369,-125 91,-27 174,-42 218,-24l4 2 3 2c6,2 10,5 13,10l1 1c25,30 35,37 3,44 -9,11 -75,23 -94,29 -26,9 -55,18 -84,24 -22,4 -46,10 -72,16 -25,6 -49,12 -72,19 -235,68 -396,164 -531,245 -77,47 -147,88 -219,118zm377 -133c85,-40 198,-88 312,-123 86,-26 172,-45 246,-46l88 -1c-48,53 -61,91 -126,106 -39,8 -70,14 -99,20 -72,14 -126,24 -233,62 -49,17 -95,38 -142,60 -83,38 -161,81 -242,119l-13 6c-22,10 -26,17 -42,26 -6,4 -9,4 -16,5l-121 17 85 -88c17,-17 267,-144 302,-162l1 -1zm376 56c43,0 54,27 57,38l15 40 -65 30 -6 0c-15,-1 -50,8 -91,21 -69,20 -149,49 -179,61 -31,12 -64,26 -96,41 -54,23 -108,47 -155,61l-227 70 203 -145c42,-30 130,-71 225,-109 54,-22 267,-107 319,-108zm-317 350c13,1 26,1 36,1l46 0c104,-2 46,-5 145,21 -22,11 -14,79 -29,86 -92,45 -87,-2 -241,-4 -37,-1 -70,-2 -91,-1l-112 -59c96,-11 142,-50 246,-44zm317 589l-35 -9c-51,-6 -163,-86 -274,-165 -62,-45 -129,-95 -195,-132 -90,-79 -122,-98 -200,-121l18 -23c17,-24 29,-36 55,-36 18,1 39,9 74,27 40,20 248,147 403,250 73,47 134,93 167,129 18,18 28,34 26,46l-5 43 -34 -9zm151 405l93 32 -64 55c-48,23 -131,-64 -190,-112 -96,-77 -121,-90 -210,-189 -8,-9 -16,-16 -23,-23 -10,-9 -19,-17 -28,-27l-151 -163c-37,-31 -63,-54 -86,-74 -70,-62 -112,-100 -230,-170l-12 -7c-6,-3 -10,-5 -15,-10 -6,-7 -8,-11 -12,-21l-30 -63 51 -6c74,-10 187,93 269,168 22,21 42,40 57,52 44,35 92,84 138,134 140,118 311,319 443,424zm-2072 -727c33,-18 52,-12 85,0 22,7 301,187 317,189 -91,41 -163,9 -257,-43 -43,-24 -120,-42 -153,-77l-40 -43 48 -26zm-154 108c187,110 316,225 488,328 -60,29 -559,-212 -610,-258l-41 -36 133 -50c-61,-25 6,2 30,16zm321 417l81 128c-245,-157 -505,-151 -714,-363l-37 -38 83 -59 15 9c22,12 31,22 41,35 91,108 384,176 531,288zm26 347c-242,-145 -590,-238 -670,-287 -28,-17 -54,-36 -80,-58 -30,-25 -101,-44 -100,-96l74 -90c72,99 631,370 785,459l49 46 -58 26z"/>
   <path class="fil0" d="M5800 6117c7,17 22,36 40,49 16,13 35,20 54,19 18,-1 38,-12 58,-36 27,-34 54,-89 76,-175 33,-167 93,-357 156,-547l132 0 -164 599c-30,113 -68,190 -109,240 -45,55 -94,79 -142,83 -47,3 -91,-14 -128,-42 -39,-29 -70,-71 -88,-113 -32,-73 -59,-380 -84,-656l-10 -111 55 0 -16 -531 26 -57c13,268 68,1140 144,1278zm534 -1155c8,-26 16,-52 23,-78 69,438 81,709 163,1220 10,29 29,54 53,68 21,11 46,13 74,2 72,-30 114,-199 150,-349 10,-41 20,-80 30,-117 6,-21 19,-72 35,-133 12,-45 25,-96 39,-148l177 0 -23 -288 -7 -196 26 -81c46,320 69,1105 162,1260 11,22 34,41 62,52 27,10 57,11 86,-2 49,-22 60,-62 79,-134l12 -42c12,-43 34,-125 60,-223 28,-107 62,-232 93,-346l174 0 -30 -537 -10 0 33 -199c21,303 102,1471 210,1475l1 0c23,13 49,18 73,15 13,-2 26,-6 37,-12l0 171c-7,2 -15,3 -24,4 -46,6 -95,-3 -140,-29 -135,-76 -149,-262 -163,-455 -3,-36 -5,-73 -9,-111l-28 -273c-30,113 -64,241 -93,349 -27,101 -50,185 -61,225l-11 40c-32,121 -50,188 -159,237 -57,25 -116,23 -167,4 -59,-22 -109,-68 -136,-123 -36,-74 -47,-201 -56,-304 -13,-146 -28,-292 -41,-438l-42 159c-15,59 -28,108 -36,137 -9,34 -18,72 -28,111 -46,188 -98,400 -234,457 -61,25 -118,18 -167,-8 -54,-30 -97,-86 -120,-150 -21,-57 -42,-298 -64,-542l-18 -203 54 0 -39 -465zm-747 465l-53 204c-50,193 -100,384 -130,474 -31,92 -71,153 -113,191 -35,31 -72,46 -108,49 -36,3 -70,-5 -100,-22 -42,-22 -77,-59 -99,-97 -59,-106 -53,-367 -48,-555 1,-39 2,-75 2,-115 0,-53 0,-92 0,-129l62 0 0 -537 -65 0c0,-323 1,-648 8,-695 12,-70 39,-125 75,-164 35,-37 77,-59 120,-66 43,-6 88,3 128,27 44,27 82,71 106,133 15,37 18,128 14,243 34,-133 79,-283 140,-344 35,-36 81,-57 128,-62 46,-6 95,4 138,28 134,77 146,238 162,441 3,40 6,82 11,125 8,76 8,198 5,334l-63 0 -9 537 112 0c-33,128 -69,254 -113,385 -34,-275 -66,-494 -60,-778 4,-185 3,-274 -2,-374 -5,-45 -8,-171 -11,-214 -11,-150 -21,-269 -86,-307 -22,-12 -48,-17 -72,-14 -22,2 -43,11 -58,27 -43,43 -86,218 -117,345 -8,33 -16,63 -22,86 -4,18 -18,93 -35,184 -7,38 -15,79 -22,120l-114 3 -37 458 -39 62 -12 -212c-3,-62 8,-222 20,-401 19,-259 40,-561 25,-599 -10,-28 -27,-47 -45,-58 -18,-10 -37,-14 -56,-11 -19,2 -36,11 -51,27 -15,16 -26,40 -32,72 -9,55 -5,749 -3,1120l1 208c0,24 -1,70 -3,121 -4,165 -10,394 25,454 8,16 24,32 42,41 13,7 27,11 41,10 13,-2 28,-8 42,-20 23,-21 47,-59 68,-121 27,-80 76,-270 125,-460 14,-52 27,-104 40,-154l138 0zm411 -537l21 -90c57,-248 110,-479 130,-551l8 -29c35,-128 53,-195 166,-243 55,-24 111,-22 162,-3 54,21 102,64 132,118 45,79 44,442 42,797l-65 1 33 537 96 0c-18,76 -35,141 -48,186l-53 188c-30,-201 -106,-1605 -112,-1614 -14,-25 -37,-45 -64,-56 -25,-10 -54,-11 -81,1 -52,22 -63,63 -85,141l-8 30c-17,61 -70,293 -127,542l-10 45 -137 0zm712 -2c34,-145 65,-276 86,-352 9,-33 19,-74 30,-116 45,-189 95,-396 239,-447 61,-22 116,-13 162,13 53,31 93,86 116,148 21,58 24,379 28,711l1 45 -72 0 0 508 13 29 124 0 -118 478c-72,-404 -73,-634 -78,-1058 -4,-314 -7,-618 -17,-645 -10,-28 -28,-53 -51,-67 -20,-11 -44,-14 -72,-4 -76,26 -115,188 -150,336 -10,42 -20,82 -32,124 -18,63 -43,171 -72,294l-137 3zm722 2c31,-126 62,-252 94,-378 48,-192 114,-453 225,-521 59,-36 118,-39 169,-21 60,22 109,72 136,134 28,65 42,429 51,786l-68 0 13 537 64 0 0 742 -32 35 -51 -27c-25,-233 -45,-780 -50,-1017 -9,-403 -21,-929 -42,-977 -11,-25 -31,-46 -56,-55 -23,-8 -49,-6 -77,11 -60,37 -116,259 -157,422l-21 82 -61 247 -137 0z"/>
   <path class="fil0" d="M5053 4890l0 602 -287 0c-12,-243 -15,-424 -12,-667l299 0 0 65zm-105 471l0 -405 -91 0 -3 193 10 212 84 0zm397 -407l-32 407 279 0 -13 -414 -234 7zm-142 466l7 -231 40 -363 393 4 57 663 -503 0 6 -73zm652 -595l470 0 107 668 -550 0 -27 -668zm103 131l-7 405 364 0 -34 -405 -323 0zm693 -1l24 406 345 0c-12,-148 -19,-265 -24,-413l-345 7zm-90 -130l499 -10 53 678 -516 0 -36 -668zm726 586l-39 -586 537 0 73 668 -575 0 4 -82zm66 -455l0 405 393 0 -23 -405 -370 0zm646 473l-14 -604 300 0 0 131 -192 0 9 405 183 0 0 132 -284 0 -2 -64z"/>
   <path class="fil1" d="M6235 4886c16,-132 34,-189 77,-309l7 32c20,97 27,166 38,275 2,22 2,23 -8,40 -9,16 -24,28 -41,32 -18,3 -34,-3 -47,-14 -14,-12 -23,-31 -26,-53l0 -1 0 -2zm717 -55c24,-124 46,-191 89,-305l6 32c21,111 27,214 31,331l-18 9c-2,22 9,-12 -4,1 -12,13 -28,21 -46,19 -17,-1 -33,-12 -43,-27 -11,-16 -17,-36 -15,-58l0 -2zm725 51c22,-170 39,-256 78,-421l11 -50 7 51c20,169 27,251 30,422l0 0c0,22 -7,42 -18,56 -12,15 -28,23 -45,23 -18,0 -34,-8 -45,-23 -11,-14 -19,-34 -19,-56l1 -2zm-2142 -44c21,-157 34,-182 82,-331 17,97 26,125 38,299 2,28 3,71 -12,90 -12,14 -28,23 -45,23 -18,0 -33,-9 -45,-23 -11,-15 -19,-35 -19,-57l1 -1z"/>
   <path class="fil1" d="M1484 4103c-94,0 -170,76 -170,170 0,95 76,171 170,171 94,0 171,-76 171,-171 0,-94 -77,-170 -171,-170z"/>
   <path class="fil1" d="M5957 748c-94,0 -171,77 -171,171 0,94 77,170 171,170 94,0 171,-76 171,-170 0,-94 -77,-171 -171,-171z"/>
   <path class="fil1" d="M11955 2475c-94,0 -170,76 -170,171 0,94 76,170 170,170 94,0 171,-76 171,-170 0,-95 -77,-171 -171,-171z"/>
   <polygon class="fil1" points="355,7539 14524,7539 14524,7773 355,7773 "/>
   <path class="fil0" d="M6866 12520l0 91 -517 0c-1,-23 3,-45 11,-66 13,-35 35,-70 64,-104 29,-34 71,-73 125,-118 85,-70 142,-125 172,-165 30,-41 45,-80 45,-116 0,-38 -13,-70 -40,-96 -28,-26 -63,-39 -107,-39 -46,0 -84,14 -111,41 -28,28 -42,66 -43,115l-98 -10c7,-73 33,-129 76,-168 45,-39 104,-58 178,-58 75,0 134,21 178,63 44,41 66,93 66,154 0,31 -7,62 -20,92 -12,31 -34,63 -63,96 -30,33 -79,79 -148,137 -58,49 -95,81 -111,99 -16,17 -30,34 -41,52l384 0zm104 -294c0,-92 9,-167 28,-223 19,-57 47,-100 85,-130 37,-31 84,-46 141,-46 41,0 78,9 110,25 32,17 58,42 78,74 20,31 36,70 48,115 12,46 18,108 18,185 0,92 -10,166 -28,222 -19,57 -47,100 -85,131 -37,30 -84,45 -141,45 -75,0 -135,-26 -177,-80 -52,-65 -77,-171 -77,-318zm98 0c0,129 15,214 45,256 30,43 67,64 111,64 44,0 81,-21 111,-64 30,-42 45,-127 45,-256 0,-128 -15,-214 -45,-256 -30,-42 -68,-63 -112,-63 -44,0 -80,19 -106,56 -33,47 -49,135 -49,263zm868 385l-96 0 0 -611c-23,22 -53,44 -91,66 -37,22 -71,39 -101,50l0 -93c54,-25 101,-55 141,-91 40,-36 68,-71 85,-105l62 0 0 784zm394 -423c-39,-15 -69,-35 -88,-62 -19,-27 -29,-60 -29,-97 0,-57 21,-105 61,-144 41,-38 95,-58 163,-58 68,0 123,20 164,60 42,39 63,87 63,144 0,36 -10,68 -29,95 -19,27 -47,47 -86,62 48,16 84,41 109,76 25,34 37,76 37,124 0,67 -23,123 -70,168 -48,46 -110,68 -187,68 -77,0 -138,-22 -186,-68 -47,-46 -70,-102 -70,-171 0,-50 12,-93 38,-127 26,-34 63,-58 110,-70zm-19 -163c0,37 12,67 36,91 23,23 54,35 92,35 38,0 68,-12 91,-35 24,-23 35,-52 35,-85 0,-36 -12,-65 -36,-89 -24,-24 -54,-36 -91,-36 -37,0 -67,12 -91,35 -24,23 -36,51 -36,84zm-31 361c0,28 6,54 19,80 13,25 32,45 58,59 25,14 53,21 82,21 46,0 84,-15 114,-44 29,-30 44,-67 44,-113 0,-46 -15,-84 -46,-114 -30,-30 -69,-45 -115,-45 -45,0 -83,15 -112,44 -30,30 -44,67 -44,112z"/>
  </g>
 </g>
</svg>
