<?xml version="1.0" encoding="UTF-8"?>
<!DOCTYPE svg PUBLIC "-//W3C//DTD SVG 1.1//EN" "http://www.w3.org/Graphics/SVG/1.1/DTD/svg11.dtd">
<!-- Creator: CorelDRAW X8 -->
<svg xmlns="http://www.w3.org/2000/svg" xml:space="preserve" width="250mm" height="250mm" version="1.1" style="shape-rendering:geometricPrecision; text-rendering:geometricPrecision; image-rendering:optimizeQuality; fill-rule:evenodd; clip-rule:evenodd"
viewBox="0 0 25000 25000"
 xmlns:xlink="http://www.w3.org/1999/xlink">
 <defs>
  <style type="text/css">
   <![CDATA[
    .fil0 {fill:#FEFEFE;fill-rule:nonzero}
   ]]>
  </style>
 </defs>
 <g id="Слой_x0020_1">
  <metadata id="CorelCorpID_0Corel-Layer"/>
  <g id="_2781905663216">
   <polygon class="fil0" points="16754,11005 14059,15133 13740,14907 16853,10230 17149,10330 17130,14974 16741,14974 "/>
   <polygon class="fil0" points="13392,10721 12287,10721 12287,14824 12194,14824 12194,10721 11085,10721 11085,10627 13392,10627 "/>
   <polygon class="fil0" points="13432,10871 12477,10871 12477,14974 12084,14974 12084,10871 10975,10871 10975,10477 13582,10477 13582,10871 "/>
   <polygon class="fil0" points="9740,14796 9662,14843 8316,12830 6971,14843 6895,14796 8264,12749 6895,10703 6971,10646 8316,12665 9662,10646 9740,10703 8373,12749 "/>
   <polygon class="fil0" points="9817,14925 9617,15045 8316,13099 7015,15046 6685,14842 8084,12749 6692,10667 7008,10431 8316,12394 13069,5167 13390,5400 8552,12749 9951,14844 "/>
   <polygon class="fil0" points="11745,7557 11554,7557 11554,7562 10032,5363 10419,5230 11751,7159 "/>
   <path class="fil0" d="M9125 8423c0,-624 -333,-993 -998,-1107l-1218 0 0 2218 1106 0c210,0 416,-61 619,-182 327,-196 491,-506 491,-929zm-1110 -2951l-121 0 -985 0 0 1753 1221 0c46,-1 138,19 212,40 583,148 874,533 874,1157 0,460 -178,795 -535,1003 -216,127 -438,191 -666,191l-1199 0 0 -4236 1199 0 1129 0 0 92 -1129 0z"/>
   <path class="fil0" d="M8975 8423c0,-273 -70,-488 -211,-644 -141,-157 -357,-261 -649,-313l-1056 0 0 1918 956 0c91,0 181,-13 270,-39 91,-27 182,-67 273,-122 139,-83 243,-190 312,-320 70,-133 105,-293 105,-480zm-960 -2801l-956 0 0 1453 1071 0 0 0c32,0 73,5 115,13l1 0c41,8 89,20 133,32 325,82 571,234 738,455 166,220 249,502 249,847 0,254 -50,477 -152,666 -102,193 -255,348 -457,466l-1 0c-119,70 -240,123 -363,159 -124,35 -250,53 -378,53l-1349 0 0 -4536 1349 0 0 1 2404 -1 0 392 -2404 0z"/>
   <polygon class="fil0" points="16743,14975 15274,12769 15607,12549 17076,14755 "/>
  </g>
  <path class="fil0" d="M15804 18444l-281 0 0 869 -114 0 0 -869 -280 0 0 -103 675 0 0 103zm-830 869l-139 0 -501 -775c-12,-19 -23,-39 -31,-61l-4 0c4,21 5,66 5,134l0 702 -113 0 0 -972 147 0 487 763c20,31 34,53 39,65l3 0c-4,-28 -7,-76 -7,-143l0 -685 114 0 0 972zm-971 0l-515 0 0 -972 494 0 0 103 -380 0 0 324 351 0 0 102 -351 0 0 340 401 0 0 103zm-654 -972l-360 972 -126 0 -352 -972 127 0 269 771c8,25 15,53 19,86l3 0c4,-27 11,-56 22,-87l275 -770 123 0zm-910 972l-515 0 0 -972 493 0 0 103 -379 0 0 324 351 0 0 102 -351 0 0 340 401 0 0 103zm-1083 0l-515 0 0 -972 494 0 0 103 -380 0 0 324 351 0 0 102 -351 0 0 340 401 0 0 103zm-713 -40c-72,38 -161,56 -268,56 -139,0 -249,-44 -332,-133 -84,-89 -125,-206 -125,-351 0,-155 47,-280 140,-376 94,-96 212,-144 356,-144 92,0 168,13 229,40l0 121c-70,-39 -146,-58 -230,-58 -112,0 -202,37 -272,112 -69,74 -104,174 -104,299 0,118 33,213 97,283 65,70 150,105 256,105 97,0 182,-22 253,-65l0 111zm-916 40l-140 0 -500 -775c-13,-19 -23,-39 -31,-61l-4 0c3,21 5,66 5,134l0 702 -114 0 0 -972 148 0 487 763c20,31 33,53 39,65l3 0c-5,-28 -7,-76 -7,-143l0 -685 114 0 0 972zm-1193 -375l-153 -414c-5,-13 -10,-35 -15,-65l-2 0c-5,28 -10,49 -16,65l-151 414 337 0zm266 375l-126 0 -103 -272 -412 0 -97 272 -127 0 373 -972 118 0 374 972zm-800 -869l-281 0 0 869 -114 0 0 -869 -280 0 0 -103 675 0 0 103zm-1358 830l0 -134c15,13 34,25 55,36 21,11 44,20 68,28 24,7 47,13 71,17 24,4 46,6 67,6 70,0 122,-13 157,-39 34,-26 52,-63 52,-112 0,-26 -6,-49 -18,-68 -11,-20 -27,-38 -47,-54 -21,-16 -45,-31 -73,-46 -28,-14 -58,-30 -90,-46 -33,-17 -65,-35 -95,-52 -29,-18 -54,-37 -76,-59 -22,-21 -39,-45 -51,-72 -13,-27 -19,-58 -19,-94 0,-45 10,-83 29,-116 20,-33 45,-60 77,-81 31,-21 68,-37 108,-47 40,-11 82,-16 124,-16 95,0 165,11 209,35l0 128c-57,-40 -131,-60 -221,-60 -25,0 -50,3 -74,8 -25,5 -47,14 -67,25 -19,12 -35,27 -47,46 -13,18 -19,41 -19,67 0,25 5,47 14,65 10,18 23,34 41,49 18,15 40,30 66,44 26,14 56,29 90,46 35,17 68,35 99,54 31,19 59,40 82,63 24,23 42,49 56,77 14,27 21,60 21,96 0,48 -10,88 -28,121 -19,34 -44,61 -76,81 -32,21 -69,36 -110,46 -42,9 -86,13 -132,13 -15,0 -34,-1 -57,-3 -22,-3 -45,-6 -69,-11 -23,-5 -46,-11 -67,-18 -21,-7 -38,-15 -50,-23z"/>
  <path class="fil0" d="M12866 17866l-504 0 0 -972 113 0 0 869 391 0 0 103zm-914 -375l-152 -414c-5,-13 -10,-35 -15,-65l-3 0c-4,28 -10,49 -16,65l-151 414 337 0zm267 375l-127 0 -103 -272 -412 0 -97 272 -126 0 372 -972 118 0 375 972zm-882 0l-158 0 -376 -445c-14,-16 -22,-28 -25,-33l-3 0 0 478 -114 0 0 -972 114 0 0 457 3 0c6,-10 14,-21 25,-33l364 -424 141 0 -417 466 446 506zm-932 0l-114 0 0 -972 114 0 0 972zm-523 -375l-153 -414c-4,-13 -10,-35 -14,-65l-3 0c-5,28 -10,49 -16,65l-151 414 337 0zm266 375l-126 0 -103 -272 -412 0 -97 272 -126 0 372 -972 118 0 374 972zm-1434 -453l0 350 155 0c67,0 118,-16 155,-47 37,-32 55,-75 55,-130 0,-115 -78,-173 -234,-173l-131 0zm0 -416l0 314 117 0c62,0 111,-15 147,-45 36,-30 53,-72 53,-127 0,-95 -62,-142 -186,-142l-131 0zm-114 869l0 -972 277 0c84,0 151,21 200,62 49,41 74,95 74,160 0,56 -15,103 -45,144 -30,41 -71,70 -123,87l0 3c65,7 118,32 157,74 39,42 59,96 59,163 0,83 -30,150 -90,202 -59,51 -135,77 -226,77l-283 0zm-543 -7c-27,15 -61,22 -104,22 -122,0 -182,-68 -182,-203l0 -411 -120 0 0 -95 120 0 0 -169 111 -36 0 205 175 0 0 95 -175 0 0 391c0,47 7,80 23,100 16,20 42,29 79,29 28,0 52,-7 73,-23l0 95zm-954 -18l0 -119c61,44 128,67 200,67 98,0 147,-33 147,-98 0,-18 -4,-34 -13,-47 -8,-13 -19,-24 -34,-34 -14,-10 -31,-19 -50,-27 -19,-8 -40,-16 -62,-25 -31,-12 -57,-24 -81,-37 -23,-12 -42,-26 -58,-41 -16,-16 -27,-34 -35,-54 -8,-20 -12,-43 -12,-70 0,-32 7,-61 22,-86 15,-25 35,-46 60,-63 25,-17 53,-30 85,-38 32,-9 65,-13 99,-13 60,0 113,10 161,31l0 113c-51,-34 -110,-51 -176,-51 -21,0 -40,3 -57,7 -16,5 -31,12 -43,20 -12,9 -21,19 -28,31 -6,12 -9,25 -9,40 0,18 3,33 9,45 7,13 17,23 29,33 13,9 28,18 46,26 18,7 39,16 62,25 31,11 59,23 83,36 24,12 45,26 62,42 17,16 31,34 40,54 9,20 14,44 14,72 0,35 -8,65 -23,90 -15,25 -35,46 -61,63 -25,17 -54,29 -87,37 -33,8 -68,12 -104,12 -71,0 -133,-13 -186,-41zm-328 25l-111 0 0 -840c-8,9 -21,19 -37,30 -17,11 -35,22 -56,33 -20,10 -42,21 -65,30 -23,10 -45,17 -67,22l0 -112c25,-7 50,-16 78,-28 27,-11 54,-24 80,-38 27,-14 52,-29 75,-45 24,-16 44,-31 62,-46l41 0 0 994z"/>
 </g>
</svg>
